<svg xmlns="http://www.w3.org/2000/svg" viewBox="0 0 36 36"><defs><style>.a{fill:#e51616;}.b{fill:#fff;}</style></defs><title>pluginIcon</title><rect class="a" width="36" height="36" rx="8" ry="8"/><path class="b" d="M17.67,31.86A12.05,12.05,0,0,1,9,15.2a11.71,11.71,0,0,1,2.37-3.48l.91-.93.06,5.47c.06,5.23.08,5.5.32,6.16a7.78,7.78,0,0,0,1.94,3.07A7.57,7.57,0,0,0,23.38,27a7.75,7.75,0,0,0,4.31-7.33,7.21,7.21,0,0,0-2.28-5,7.56,7.56,0,0,0-3.82-2.14c-1.44-.3-1.37-.35-1.37.87v1.05l.79.15a5.58,5.58,0,0,1,4.45,6.6,5.41,5.41,0,0,1-1.39,2.61A5.54,5.54,0,0,1,15,22.41a6.49,6.49,0,0,1-.32-.87,29.41,29.41,0,0,1-.16-6.1l0-6,.36-.18A2.31,2.31,0,0,1,15.26,9s.08,2.78.1,6.17c0,0-.43,4.45.1,6.16.08.25.22.67.22.67a4.82,4.82,0,0,0,2.2,2.26,4.12,4.12,0,0,0,2.21.51,4.9,4.9,0,0,0,4.3-3,4.73,4.73,0,0,0-3.1-6.29c-1.1-.32-1.08-.34-1.08.86v1l.53.14a2.58,2.58,0,0,1,1,4.39,2.46,2.46,0,0,1-1.84.67,2.54,2.54,0,0,1-2.48-2.56c0-2,0-5.59,0-5.59l0-6.16.27-.07c.15,0,.76-.13,1.36-.21A12.73,12.73,0,0,1,26,9.6,12.3,12.3,0,0,1,31.63,17a8.77,8.77,0,0,1,.33,3.1,8.76,8.76,0,0,1-.32,3.07,12,12,0,0,1-8.41,8.51,8.77,8.77,0,0,1-2.9.35,12.83,12.83,0,0,1-2.67-.13Z" transform="translate(-2 -2)"/></svg>